HIERARCHY
ROOT Hips
{
	OFFSET -0.001795 -0.223333 0.028219
	CHANNELS 6 Xposition Yposition Zposition Zrotation Yrotation Xrotation 
	JOINT LeftUpLeg
	{
		OFFSET 0.069520 -0.091406 -0.006815
		CHANNELS 3 Zrotation Yrotation Xrotation
		JOINT LeftLeg
		{
			OFFSET 0.034277 -0.375199 -0.004496
			CHANNELS 3 Zrotation Yrotation Xrotation
			JOINT LeftFoot
			{
				OFFSET -0.013596 -0.397961 -0.043693
				CHANNELS 3 Zrotation Yrotation Xrotation
				JOINT LeftToe
				{
					OFFSET 0.026358 -0.055791 0.119288
					CHANNELS 3 Zrotation Yrotation Xrotation
					End Site
					{
						OFFSET 0.000000 0.000000 0.000000
					}
				}
			}
		}
	}
	JOINT RightUpLeg
	{
		OFFSET -0.067670 -0.090522 -0.004320
		CHANNELS 3 Zrotation Yrotation Xrotation
		JOINT RightLeg
		{
			OFFSET -0.038290 -0.382569 -0.008850
			CHANNELS 3 Zrotation Yrotation Xrotation
			JOINT RightFoot
			{
				OFFSET 0.015774 -0.398415 -0.042312
				CHANNELS 3 Zrotation Yrotation Xrotation
				JOINT RightToe
				{
					OFFSET -0.025372 -0.048144 0.123348
					CHANNELS 3 Zrotation Yrotation Xrotation
					End Site
					{
						OFFSET 0.000000 0.000000 0.000000
					}
				}
			}
		}
	}
	JOINT Spine
	{
		OFFSET -0.002533 0.108963 -0.026696
		CHANNELS 3 Zrotation Yrotation Xrotation
		JOINT Spine1
		{
			OFFSET 0.005487 0.135180 0.001092
			CHANNELS 3 Zrotation Yrotation Xrotation
			JOINT Spine2
			{
				OFFSET 0.001457 0.052922 0.025425
				CHANNELS 3 Zrotation Yrotation Xrotation
				JOINT Neck
				{
					OFFSET -0.002778 0.213870 -0.042857
					CHANNELS 3 Zrotation Yrotation Xrotation
					JOINT Head
					{
						OFFSET 0.005152 0.064970 0.051349
						CHANNELS 3 Zrotation Yrotation Xrotation
						End Site
						{
							OFFSET 0.000000 0.000000 0.000000
						}
					}
				}
				JOINT LeftShoulder
				{
					OFFSET 0.078845 0.121749 -0.034090
					CHANNELS 3 Zrotation Yrotation Xrotation
					JOINT LeftArm
					{
						OFFSET 0.090977 0.030469 -0.008868
						CHANNELS 3 Zrotation Yrotation Xrotation
						JOINT LeftForeArm
						{
							OFFSET 0.259612 -0.012772 -0.027456
							CHANNELS 3 Zrotation Yrotation Xrotation
							JOINT LeftHand
							{
								OFFSET 0.249234 0.008986 -0.001171
								CHANNELS 3 Zrotation Yrotation Xrotation
								End Site
								{
									OFFSET 0.000000 0.000000 0.000000
								}
							}
						}
					}
				}
				JOINT RightShoulder
				{
					OFFSET -0.081759 0.118833 -0.038615
					CHANNELS 3 Zrotation Yrotation Xrotation
					JOINT RightArm
					{
						OFFSET -0.096012 0.032551 -0.009143
						CHANNELS 3 Zrotation Yrotation Xrotation
						JOINT RightForeArm
						{
							OFFSET -0.253742 -0.013329 -0.021401
							CHANNELS 3 Zrotation Yrotation Xrotation
							JOINT RightHand
							{
								OFFSET -0.255298 0.007772 -0.005559
								CHANNELS 3 Zrotation Yrotation Xrotation
								End Site
								{
									OFFSET 0.000000 0.000000 0.000000
								}
							}
						}
					}
				}
			}
		}
	}
}
MOTION
Frames: 6
Frame Time: 0.050000
-2.201086 0.958952 0.271978 -3.316744 50.358869 -0.460213 1.598866 -0.899015 -9.600069 -5.960171 -1.095623 14.804230 7.567733 14.354607 4.666304 0.000000 0.000000 0.000000 2.957338 0.837220 -11.326605 -0.807750 -0.102392 4.371801 3.455895 7.182665 10.251695 0.000000 0.000000 0.000000 3.276578 -2.698038 17.960795 -5.588289 1.951309 -27.418876 -4.976953 6.812817 33.173749 13.292091 1.351311 -33.014345 0.000000 0.000000 0.000000 -15.718166 -10.281741 -6.280054 -51.837686 -9.165698 -2.825175 3.572618 -40.568258 -4.730071 0.000000 0.000000 0.000000 29.589527 -14.672926 1.520085 58.943075 10.599843 -4.370322 -0.152807 38.394325 5.334207 0.000000 0.000000 0.000000 
-2.211950 0.960358 0.259073 -4.028033 49.882137 -0.875503 1.782670 -0.823383 -8.939088 -5.517150 -0.784312 12.036139 6.808836 14.290595 6.465270 0.000000 0.000000 0.000000 3.359466 0.905789 -12.963323 -0.749177 -0.092084 4.152652 3.853811 7.742984 11.817350 0.000000 0.000000 0.000000 2.271188 -2.548795 18.205015 -5.956004 1.967781 -27.623525 -4.935751 6.903086 33.533925 14.081751 0.723382 -32.300008 0.000000 0.000000 0.000000 -15.826834 -10.695626 -6.076402 -50.947096 -9.352214 -2.586534 5.668834 -41.357484 -5.637517 0.000000 0.000000 0.000000 29.611559 -14.148089 1.907614 59.620462 10.113008 -4.617464 1.196478 38.689520 5.751055 0.000000 0.000000 0.000000 
-2.219953 0.961553 0.248397 -4.904971 49.824506 -1.606060 2.228449 -0.844315 -9.009340 -5.613440 -0.639770 10.598429 6.387975 14.661177 8.212647 0.000000 0.000000 0.000000 3.435690 0.902919 -14.047218 -0.157456 -0.319286 5.545938 3.084596 6.408940 12.025190 0.000000 0.000000 0.000000 1.428673 -2.423277 18.321666 -6.226161 2.029000 -27.458849 -5.071828 6.914287 33.609231 14.042220 0.722339 -32.244652 0.000000 0.000000 0.000000 -16.529484 -11.019095 -6.309276 -49.629053 -10.004699 -1.921560 6.796194 -41.610066 -6.064436 0.000000 0.000000 0.000000 29.150352 -13.653009 2.236799 60.938970 9.894254 -4.486528 2.300613 38.788531 6.119933 0.000000 0.000000 0.000000 
-2.225122 0.962636 0.240472 -5.879334 49.624596 -2.764982 2.623662 -0.797276 -8.460954 -5.501844 -0.549217 9.541887 6.263999 14.849044 8.997107 0.000000 0.000000 0.000000 3.375463 0.895229 -14.152850 0.581755 -0.656707 7.216686 2.724382 5.765542 11.750024 0.000000 0.000000 0.000000 0.649941 -2.379762 18.752168 -6.595362 2.037129 -27.809515 -5.130048 7.039968 33.918589 14.645245 0.073218 -30.874928 0.000000 0.000000 0.000000 -17.541072 -11.633694 -6.529949 -48.040201 -9.609934 -1.601584 8.455955 -42.654461 -6.861871 0.000000 0.000000 0.000000 29.377680 -13.309365 2.591214 61.052869 9.394318 -4.902061 3.658203 40.226476 6.938424 0.000000 0.000000 0.000000 
-2.228200 0.963138 0.235058 -6.852325 49.588611 -3.341082 3.218774 -0.842070 -8.668717 -5.261609 -0.505562 8.902978 5.987012 14.996679 9.980718 0.000000 0.000000 0.000000 3.409370 0.901909 -14.331597 0.654247 -0.891887 9.191787 2.519660 5.399904 11.222884 0.000000 0.000000 0.000000 0.100063 -2.167130 18.187371 -7.015797 2.109487 -27.586561 -5.522605 6.512293 33.678547 14.369192 0.024463 -30.269338 0.000000 0.000000 0.000000 -17.750611 -11.762780 -6.410942 -46.967415 -10.131908 -1.243916 9.562554 -42.263722 -7.122119 0.000000 0.000000 0.000000 28.922519 -13.089689 2.480271 61.134353 8.080095 -5.404803 6.360230 41.425924 8.202279 0.000000 0.000000 0.000000 
-2.230204 0.963421 0.231458 -7.287559 49.239294 -3.842288 3.366373 -0.813681 -8.328826 -4.968083 -0.490334 8.702920 5.510051 14.460481 10.029180 0.000000 0.000000 0.000000 3.478164 0.944062 -13.258026 0.639508 -1.004046 10.128271 2.612942 5.572859 9.870516 0.000000 0.000000 0.000000 -0.618489 -1.916168 17.576040 -7.286437 2.136704 -27.698947 -5.961886 6.550179 34.172286 14.880068 -0.656500 -28.831205 0.000000 0.000000 0.000000 -18.248740 -12.376285 -6.346705 -45.563935 -10.089246 -0.993921 11.180427 -41.792979 -7.610725 0.000000 0.000000 0.000000 29.508015 -12.852975 2.884539 60.666548 7.662819 -5.964835 8.261334 42.951274 9.421637 0.000000 0.000000 0.000000 
